<svg width="32" height="32" viewBox="0 0 32 32" fill="none" xmlns="http://www.w3.org/2000/svg">
  <rect width="32" height="32" rx="4" fill="#FF5A5F"/>
  <path d="M15.99 17.5C14.79 16 14.16 14.75 14.16 13.62C14.16 12.38 14.79 11.5 15.99 11.5C17.19 11.5 17.83 12.38 17.83 13.62C17.83 14.75 17.2 16 15.99 17.5ZM21.01 19.75C21.11 19.62 21.21 19.5 21.3 19.38C21.54 19.08 21.78 18.75 22 18.38C22.65 17.38 23 16.5 23 15.5C23 13.12 21.74 11.5 19.7 11.5C18.45 11.5 17.41 12.12 16.79 13.12C16.57 12.75 16.3 12.38 16 12.12C15.5 11.62 14.79 11.38 14.09 11.62C13.38 11.88 13.01 12.5 13.01 13.25C13.01 14.38 13.8 15.88 15.4 17.75C14.5 18.88 13.6 19.88 12.89 20.75C12.4 21.38 12.19 21.88 12.3 22.38C12.4 22.88 12.79 23.25 13.4 23.38C13.5 23.38 13.59 23.38 13.7 23.38C14.29 23.38 15.1 23.12 16.1 22.5C17.1 23.12 17.91 23.38 18.5 23.38C19.31 23.38 19.8 23 19.9 22.38C20.01 21.88 19.8 21.38 19.31 20.75C18.75 20.01 18 19.12 17.2 18.12C18.51 16.5 19.51 15.12 19.51 13.75C19.51 13.25 19.41 12.75 19.2 12.38C19.82 12 20.32 12.12 20.61 12.5C21.12 13.12 21.01 14.25 20.22 15.5C20.01 15.88 19.72 16.25 19.41 16.62C19.31 16.75 19.22 16.88 19.12 17C20.02 18.12 20.7 19.12 21.01 19.75ZM16.5 21.38C15.7 22 15.1 22.25 14.6 22.25C14.4 22.25 14.3 22.25 14.19 22.12C14.09 22 14.19 21.75 14.39 21.5C14.9 20.88 15.6 20 16.3 19.12C16.8 19.75 17.3 20.38 17.7 20.88C17.9 21.12 18 21.38 17.9 21.5C17.8 21.62 17.7 21.62 17.5 21.62C17.2 21.62 16.9 21.5 16.5 21.38Z" fill="white"/>
</svg> 